# Blender v3.0.1 OBJ File: 'sedan.blend'
# www.blender.org
mtllib sedan_v.mtl
o Plane_Plane.001
v 0.000000 0.380341 0.000000
v -0.409293 0.363552 0.000000
v 0.200372 0.364516 0.000000
v 0.000000 -0.341987 0.000000
v 0.858880 0.115161 0.000000
v 0.764247 0.162477 0.000000
v 0.643935 -0.339350 0.000000
v -0.380293 -0.341987 0.000000
v -0.438294 -0.339698 0.000000
v -0.466531 -0.154375 0.000000
v -0.551243 -0.081301 0.000000
v -0.561928 0.313182 0.000000
v -0.931302 0.162074 0.000000
v -1.019873 0.144818 0.000000
v -0.647403 -0.050141 0.000000
v -0.765376 -0.079924 0.000000
v -0.816095 -0.127886 0.000000
v -0.854174 -0.190026 0.000000
v -0.902429 -0.238174 0.079126
v -0.868126 -0.238267 0.000000
v -1.117050 -0.237530 0.079126
v -1.127565 -0.286508 0.000000
v -0.873194 -0.311994 0.000000
v -0.904983 -0.308154 0.000000
v -1.163495 0.052655 0.000000
v -1.083470 0.144818 0.000000
v -1.122137 0.007956 0.000000
v -1.157752 -0.093800 0.000000
v -1.189551 -0.110335 0.000000
v -1.180647 -0.237530 0.000000
v 1.163495 0.052655 0.000000
v 0.684637 -0.291779 0.000000
v 0.684637 -0.340622 0.000000
v 0.717895 -0.150423 0.000000
v 0.858759 -0.048221 0.000000
v 1.026527 -0.085967 0.000000
v 1.404548 -0.012034 0.000000
v 1.116484 -0.197819 0.000000
v 1.158457 -0.342233 0.000000
v 1.119663 -0.341256 0.000000
v 1.397886 -0.327224 0.000000
v 1.466874 -0.150677 0.000000
v 1.453852 -0.323408 0.000000
v 0.000000 0.097968 0.497654
v 0.000000 -0.293145 0.497655
v 0.643935 -0.290507 0.497655
v 0.672292 -0.113367 0.497654
v 0.665035 0.066318 0.497654
v 0.289555 0.299848 0.415530
v 0.000000 0.329972 0.405909
v 0.719983 0.083108 0.446565
v 0.687811 0.157906 0.444456
v -0.401662 0.128495 0.465053
v -0.381819 -0.290092 0.497655
v -0.520296 0.177338 0.426319
v -0.459663 -0.135931 0.497655
v -0.636075 0.133717 0.426704
v -0.540559 -0.060886 0.497655
v -0.424557 0.299445 0.358858
v 0.000000 0.380341 0.361511
v -0.409293 0.363552 0.302824
v 0.200372 0.364516 0.354486
v 0.000000 -0.341987 0.465185
v 0.643935 -0.339350 0.465185
v 0.858880 0.115161 0.392136
v 0.764247 0.162477 0.404373
v -0.380293 -0.341987 0.465185
v -0.438294 -0.339698 0.441426
v -0.466531 -0.154375 0.473895
v -0.551243 -0.081301 0.473895
v -0.561928 0.313182 0.270730
v -0.908407 0.090336 0.405107
v -0.931302 0.162074 0.226670
v -1.083979 0.048659 0.405221
v -1.019873 0.144818 0.211675
v -0.646894 -0.029157 0.497654
v -0.647403 -0.050141 0.473895
v -0.791769 -0.053741 0.497654
v -0.765376 -0.079924 0.473895
v -1.058540 -0.029717 0.370825
v -0.851551 -0.104619 0.497654
v -0.816095 -0.127886 0.473895
v -1.094155 -0.093800 0.393687
v -0.889710 -0.180936 0.497654
v -0.854174 -0.190026 0.473895
v -1.125953 -0.110335 0.466020
v -0.902429 -0.238174 0.497654
v -0.868126 -0.238267 0.473895
v -1.116767 -0.217675 0.467285
v -1.127565 -0.286508 0.400964
v -0.904983 -0.308154 0.393283
v -0.873194 -0.311994 0.402333
v -1.147577 0.048659 0.218824
v -1.083470 0.144818 0.101887
v -1.122137 0.007956 0.218711
v -1.157752 -0.093800 0.355972
v -1.189551 -0.110335 0.417148
v -1.180647 -0.237530 0.395847
v 1.110473 -0.003385 0.459725
v 1.179718 0.049339 0.288989
v 1.044204 -0.055026 0.497654
v 0.854620 0.005646 0.497654
v 0.684637 -0.340622 0.439363
v 0.684637 -0.291779 0.471833
v 0.717895 -0.150423 0.471833
v 0.858759 -0.048221 0.471833
v 1.026527 -0.085967 0.471832
v 1.238940 -0.038724 0.465012
v 1.404548 -0.012034 0.161660
v 1.326705 -0.069527 0.452649
v 1.412241 -0.111756 0.415725
v 1.466874 -0.150677 0.318789
v 1.150476 -0.179932 0.497654
v 1.116767 -0.217675 0.467285
v 1.158457 -0.342233 0.497654
v 1.119663 -0.341256 0.471832
v 1.397886 -0.327224 0.445030
v 1.453852 -0.323408 0.291991
v 0.719983 0.128091 0.589772
v 0.660503 0.179458 0.600673
v 0.830166 0.115161 0.417687
v 0.735350 0.165911 0.476966
v -0.902429 -0.238174 -0.079126
v -1.117050 -0.237530 -0.079126
v 0.000000 0.097968 -0.497654
v 0.000000 -0.293145 -0.497655
v 0.643935 -0.290507 -0.497655
v 0.672292 -0.113367 -0.497654
v 0.665035 0.066318 -0.497654
v 0.289555 0.299848 -0.415530
v 0.000000 0.329972 -0.405909
v 0.719983 0.083108 -0.446565
v 0.687811 0.157906 -0.444456
v -0.401662 0.128495 -0.465053
v -0.381819 -0.290092 -0.497655
v -0.520296 0.177338 -0.426319
v -0.459663 -0.135931 -0.497655
v -0.636075 0.133717 -0.426704
v -0.540559 -0.060886 -0.497655
v -0.424557 0.299445 -0.358858
v 0.000000 0.380341 -0.361511
v -0.409293 0.363552 -0.302824
v 0.200372 0.364516 -0.354486
v 0.000000 -0.341987 -0.465185
v 0.643935 -0.339350 -0.465185
v 0.858880 0.115161 -0.392136
v 0.764247 0.162477 -0.404373
v -0.380293 -0.341987 -0.465185
v -0.438294 -0.339698 -0.441426
v -0.466531 -0.154375 -0.473895
v -0.551243 -0.081301 -0.473895
v -0.561928 0.313182 -0.270730
v -0.908407 0.090336 -0.405107
v -0.931302 0.162074 -0.226670
v -1.083979 0.048659 -0.405221
v -1.019873 0.144818 -0.211675
v -0.646894 -0.029157 -0.497654
v -0.647403 -0.050141 -0.473895
v -0.791769 -0.053741 -0.497654
v -0.765376 -0.079924 -0.473895
v -1.058540 -0.029717 -0.370825
v -0.851551 -0.104619 -0.497654
v -0.816095 -0.127886 -0.473895
v -1.094155 -0.093800 -0.393687
v -0.889710 -0.180936 -0.497654
v -0.854174 -0.190026 -0.473895
v -1.125953 -0.110335 -0.466020
v -0.902429 -0.238174 -0.497654
v -0.868126 -0.238267 -0.473895
v -1.116767 -0.217675 -0.467285
v -1.127565 -0.286508 -0.400964
v -0.904983 -0.308154 -0.393283
v -0.873194 -0.311994 -0.402333
v -1.147577 0.048659 -0.218824
v -1.083470 0.144818 -0.101887
v -1.122137 0.007956 -0.218711
v -1.157752 -0.093800 -0.355972
v -1.189551 -0.110335 -0.417148
v -1.180647 -0.237530 -0.395847
v 1.110473 -0.003385 -0.459725
v 1.179718 0.049339 -0.288989
v 1.044204 -0.055026 -0.497654
v 0.854620 0.005646 -0.497654
v 0.684637 -0.340622 -0.439363
v 0.684637 -0.291779 -0.471833
v 0.717895 -0.150423 -0.471833
v 0.858759 -0.048221 -0.471833
v 1.026527 -0.085967 -0.471832
v 1.238940 -0.038724 -0.465012
v 1.404548 -0.012034 -0.161660
v 1.326705 -0.069527 -0.452649
v 1.412241 -0.111756 -0.415725
v 1.466874 -0.150677 -0.318789
v 1.150476 -0.179932 -0.497654
v 1.116767 -0.217675 -0.467285
v 1.158457 -0.342233 -0.497654
v 1.119663 -0.341256 -0.471832
v 1.397886 -0.327224 -0.445030
v 1.453852 -0.323408 -0.291991
v 0.719983 0.128091 -0.589772
v 0.660503 0.179458 -0.600673
v 0.830166 0.115161 -0.417687
v 0.735350 0.165911 -0.476966
vt 0.000000 0.000000
vt 1.000000 0.000000
vt 1.000000 0.500000
vt 1.000000 1.000000
vt 0.000000 1.000000
vt 1.000000 1.000000
vt 0.000000 1.000000
vt 1.000000 1.000000
vt 1.000000 1.000000
vt 0.000000 1.000000
vt 0.000000 0.000000
vt 0.000000 1.000000
vt 0.000000 0.000000
vt 0.000000 1.000000
vt 0.000000 0.000000
vt 0.000000 0.000000
vt 0.000000 0.000000
vt 0.000000 0.000000
vt 0.000000 0.000000
vt 1.000000 1.000000
vt 1.000000 1.000000
vt 1.000000 1.000000
vt 0.000000 0.000000
vt 1.000000 0.000000
vt 0.000000 0.000000
vt 0.000000 0.000000
vt 0.000000 0.000000
vt 0.000000 0.000000
vt 0.000000 0.000000
vt 0.000000 0.000000
vt 0.000000 0.000000
vt 0.000000 0.000000
vt 0.000000 0.000000
vt 0.000000 0.000000
vt 0.000000 0.000000
vt 0.000000 0.000000
vt 0.000000 0.000000
vt 0.000000 0.000000
vt 0.000000 0.000000
vt 0.000000 0.000000
vt 0.000000 0.000000
vt 0.000000 0.000000
vt 0.000000 0.000000
vt 0.000000 0.000000
vt 0.000000 0.000000
vt 0.000000 0.000000
vt 0.000000 0.000000
vt 0.000000 0.000000
vt 0.000000 0.000000
vt 0.000000 0.000000
vt 0.000000 0.000000
vt 0.000000 0.000000
vt 0.000000 0.000000
vt 0.000000 0.000000
vt 0.000000 0.000000
vt 0.000000 0.000000
vt 0.000000 0.000000
vt 0.000000 0.000000
vt 1.000000 1.000000
vt 1.000000 1.000000
vt 1.000000 1.000000
vt 0.500000 0.500000
vt 0.000000 0.000000
vt 1.000000 0.000000
vt 1.000000 0.000000
vt 0.000000 0.000000
vt 0.000000 0.000000
vt 0.000000 0.000000
vt 1.000000 1.000000
vt 1.000000 1.000000
vt 0.000000 0.000000
vt 0.000000 0.000000
vt 0.000000 0.000000
vt 0.000000 0.000000
vt 0.000000 0.000000
vt 0.000000 0.000000
vt 0.000000 0.000000
vt 0.000000 0.000000
vt 0.000000 0.000000
vt 1.000000 0.000000
vt 1.000000 0.000000
vt 0.000000 0.000000
vt 0.000000 0.000000
vt 0.000000 0.000000
vt 0.000000 0.000000
vt 0.000000 0.000000
vt 0.000000 0.000000
vt 0.000000 0.000000
vt 1.000000 1.000000
vt 0.000000 0.000000
vt 0.000000 0.000000
vt 0.000000 0.000000
vt 0.000000 0.000000
vt 0.000000 0.000000
vt 0.000000 0.000000
vt 0.000000 0.000000
vt 0.000000 0.000000
vt 0.000000 0.000000
vt 1.000000 0.000000
vt 0.000000 0.000000
vt 0.000000 0.000000
vt 0.000000 0.000000
vt 0.000000 0.000000
vt 0.000000 0.000000
vt 0.000000 0.000000
vt 0.000000 0.000000
vt 0.000000 0.000000
vt 0.000000 0.000000
vt 0.000000 0.000000
vt 0.000000 0.000000
vt 0.000000 0.000000
vt 0.000000 0.000000
vt 0.000000 0.000000
vt 0.000000 0.000000
vt 0.000000 0.000000
vt 1.000000 1.000000
vt 1.000000 1.000000
vt 1.000000 1.000000
vt 0.000000 0.000000
vt 0.000000 0.000000
vt 0.000000 0.000000
vt 0.000000 0.000000
vt 1.000000 1.000000
vt 1.000000 1.000000
vt 0.000000 0.000000
vt 0.000000 1.000000
vt 1.000000 1.000000
vt 1.000000 0.500000
vt 1.000000 0.000000
vt 0.000000 1.000000
vt 1.000000 1.000000
vt 1.000000 1.000000
vt 1.000000 1.000000
vt 0.000000 0.000000
vt 0.000000 1.000000
vt 0.000000 0.000000
vt 0.000000 1.000000
vt 0.000000 0.000000
vt 0.000000 1.000000
vt 0.000000 0.000000
vt 0.000000 0.000000
vt 0.000000 0.000000
vt 0.000000 0.000000
vt 1.000000 1.000000
vt 1.000000 1.000000
vt 1.000000 1.000000
vt 1.000000 0.000000
vt 0.000000 0.000000
vt 0.000000 0.000000
vt 0.000000 0.000000
vt 0.000000 0.000000
vt 0.000000 0.000000
vt 0.000000 0.000000
vt 0.000000 0.000000
vt 0.000000 0.000000
vt 0.000000 0.000000
vt 0.000000 0.000000
vt 0.000000 0.000000
vt 0.000000 0.000000
vt 0.000000 0.000000
vt 0.000000 0.000000
vt 0.000000 0.000000
vt 0.000000 0.000000
vt 0.000000 0.000000
vt 0.000000 0.000000
vt 0.000000 0.000000
vt 0.000000 0.000000
vt 0.000000 0.000000
vt 0.000000 0.000000
vt 0.000000 0.000000
vt 0.000000 0.000000
vt 0.000000 0.000000
vt 0.000000 0.000000
vt 0.000000 0.000000
vt 0.000000 0.000000
vt 0.000000 0.000000
vt 0.000000 0.000000
vt 0.000000 0.000000
vt 0.000000 0.000000
vt 0.000000 0.000000
vt 0.000000 0.000000
vt 0.000000 0.000000
vt 1.000000 1.000000
vt 1.000000 1.000000
vt 1.000000 1.000000
vt 0.000000 0.000000
vt 0.500000 0.500000
vt 1.000000 0.000000
vt 1.000000 0.000000
vt 0.000000 0.000000
vt 0.000000 0.000000
vt 0.000000 0.000000
vt 1.000000 1.000000
vt 1.000000 1.000000
vt 0.000000 0.000000
vt 0.000000 0.000000
vt 0.000000 0.000000
vt 0.000000 0.000000
vt 0.000000 0.000000
vt 0.000000 0.000000
vt 0.000000 0.000000
vt 0.000000 0.000000
vt 0.000000 0.000000
vt 0.000000 0.000000
vt 0.000000 0.000000
vt 1.000000 1.000000
vt 1.000000 1.000000
vn 0.0000 0.0000 1.0000
vn 0.0139 0.3596 0.9330
vn 0.1704 0.4629 0.8699
vn -0.0399 0.0392 0.9984
vn -0.0563 0.1343 0.9893
vn 0.0471 0.2829 0.9580
vn 0.1311 -0.6636 -0.7365
vn -0.0793 0.9887 -0.1274
vn 0.0023 -0.5536 0.8328
vn -0.2938 0.7853 0.5449
vn -0.2217 0.8977 0.3806
vn 0.4351 0.1218 -0.8921
vn 0.3592 -0.3308 -0.8726
vn -0.0997 -0.6653 -0.7399
vn 0.1637 0.3404 -0.9259
vn 0.5237 -0.6974 -0.4893
vn 0.1242 -0.9753 -0.1824
vn 0.6724 0.1143 -0.7313
vn 0.8541 0.4436 -0.2716
vn -0.5741 0.7808 0.2465
vn -0.0989 0.4799 0.8717
vn -0.0645 0.4021 0.9133
vn -0.2586 0.6923 0.6737
vn 0.5525 0.5318 -0.6418
vn 0.0613 0.8283 -0.5569
vn -0.0936 0.7731 -0.6274
vn -0.5447 0.1377 -0.8272
vn -0.4566 0.2514 -0.8534
vn -0.3466 0.3874 -0.8543
vn -0.1375 0.6645 -0.7345
vn 0.2203 0.7092 -0.6697
vn -0.5065 -0.5663 0.6502
vn -0.6319 -0.2670 0.7276
vn -0.3604 0.6552 0.6640
vn -0.0638 0.5204 0.8515
vn -0.0864 0.4353 0.8961
vn 0.0619 0.7000 0.7114
vn 0.2478 0.8137 0.5259
vn -0.3441 -0.5053 0.7914
vn -0.0022 -0.5418 0.8405
vn 0.2411 0.8135 0.5292
vn 0.1657 0.6599 0.7329
vn 0.4550 -0.4930 0.7416
vn 0.4805 -0.0930 0.8720
vn -0.1374 -0.4991 0.8556
vn 0.2529 -0.3695 0.8941
vn 0.3517 0.8792 0.3215
vn -0.6092 -0.0106 0.7930
vn -0.4378 -0.3500 0.8282
vn 0.1411 0.2384 0.9609
vn 0.2197 0.0465 0.9745
vn 0.3525 0.8956 0.2713
vn 0.5228 0.7988 0.2977
vn 0.2689 0.0458 0.9621
vn 0.9095 -0.0615 0.4111
vn 0.7836 0.5861 0.2063
vn -0.0312 -0.9995 0.0000
vn 0.9972 -0.0752 0.0000
vn 0.0000 -1.0000 0.0000
vn 0.0680 -0.9977 0.0000
vn -0.1912 0.9815 0.0000
vn 0.9121 0.4100 0.0000
vn -0.6871 0.7266 0.0000
vn 0.0410 -0.9992 0.0000
vn 0.0968 0.9953 0.0000
vn -0.0394 -0.9992 0.0000
vn -0.9976 0.0686 0.0000
vn 0.9734 -0.2290 0.0000
vn -0.9886 -0.1506 0.0000
vn 0.0000 1.0000 0.0000
vn 0.1199 0.9928 0.0000
vn 0.6781 0.7350 0.0000
vn 0.0787 0.9969 0.0000
vn -0.6532 -0.7572 0.0000
vn 0.0510 0.9984 -0.0246
vn -0.8039 -0.5946 -0.0123
vn 0.3083 0.9513 0.0000
vn -0.8526 0.5225 0.0000
vn -0.7791 0.6251 0.0465
vn 0.5873 -0.8094 0.0000
vn -0.3134 0.9496 0.0000
vn 0.0041 -1.0000 0.0000
vn 0.7875 0.6159 -0.0230
vn -0.2195 -0.9756 0.0000
vn 0.2010 0.9796 -0.0000
vn 0.4472 0.8944 0.0000
vn -0.0252 -0.9997 0.0000
vn 0.9439 -0.3304 0.0000
vn -0.9997 -0.0228 -0.0002
vn -0.2448 0.9696 0.0000
vn 0.4614 -0.8872 0.0000
vn 0.0626 -0.9980 0.0000
vn 0.9976 0.0698 0.0000
vn -0.3786 0.9255 0.0000
vn -0.9606 0.2778 0.0000
vn 1.0000 -0.0000 0.0000
vn 0.3373 0.9414 0.0000
vn 0.2606 0.9654 -0.0023
vn 0.6202 0.7144 0.3240
vn -0.8058 -0.5894 0.0575
vn 0.5223 0.8060 0.2784
vn 0.3375 -0.8937 0.2956
vn 0.0000 0.0000 -1.0000
vn 0.0139 0.3596 -0.9330
vn 0.1704 0.4629 -0.8699
vn -0.0399 0.0392 -0.9984
vn -0.0563 0.1343 -0.9893
vn 0.0471 0.2829 -0.9580
vn 0.1311 -0.6636 0.7365
vn -0.0793 0.9887 0.1274
vn 0.0023 -0.5536 -0.8328
vn -0.2938 0.7853 -0.5449
vn -0.2217 0.8977 -0.3806
vn 0.4351 0.1218 0.8921
vn 0.3592 -0.3308 0.8726
vn -0.0997 -0.6653 0.7399
vn 0.1637 0.3404 0.9259
vn 0.5237 -0.6974 0.4893
vn 0.1242 -0.9753 0.1824
vn 0.6724 0.1143 0.7313
vn 0.8541 0.4436 0.2716
vn -0.5741 0.7808 -0.2465
vn -0.0989 0.4799 -0.8717
vn -0.0645 0.4021 -0.9133
vn -0.2586 0.6923 -0.6737
vn 0.5525 0.5318 0.6418
vn 0.0613 0.8283 0.5569
vn -0.0936 0.7731 0.6274
vn -0.5447 0.1377 0.8272
vn -0.4566 0.2514 0.8534
vn -0.3466 0.3874 0.8543
vn -0.1375 0.6645 0.7345
vn 0.2203 0.7092 0.6697
vn -0.5065 -0.5663 -0.6502
vn -0.6319 -0.2670 -0.7276
vn -0.3604 0.6552 -0.6640
vn -0.0638 0.5204 -0.8515
vn -0.0864 0.4353 -0.8961
vn 0.0619 0.7000 -0.7114
vn 0.2478 0.8137 -0.5259
vn -0.3441 -0.5053 -0.7914
vn -0.0022 -0.5418 -0.8405
vn 0.2411 0.8135 -0.5292
vn 0.1657 0.6599 -0.7329
vn 0.4550 -0.4930 -0.7416
vn 0.4805 -0.0930 -0.8720
vn -0.1374 -0.4991 -0.8556
vn 0.2529 -0.3695 -0.8941
vn 0.3517 0.8792 -0.3215
vn -0.6092 -0.0106 -0.7930
vn -0.4378 -0.3500 -0.8282
vn 0.1411 0.2384 -0.9609
vn 0.2197 0.0465 -0.9745
vn 0.3525 0.8956 -0.2713
vn 0.5228 0.7988 -0.2977
vn 0.2689 0.0458 -0.9621
vn 0.9095 -0.0615 -0.4111
vn 0.7836 0.5861 -0.2063
vn 0.0510 0.9984 0.0246
vn -0.8039 -0.5946 0.0123
vn -0.7791 0.6251 -0.0465
vn 0.7875 0.6159 0.0230
vn -0.9997 -0.0228 0.0002
vn 0.2606 0.9654 0.0023
vn 0.6202 0.7144 -0.3240
vn -0.8058 -0.5894 -0.0575
vn 0.5223 0.8060 -0.2784
vn 0.3375 -0.8937 -0.2956
usemtl Material.001
s off
f 45/1/1 46/2/1 47/3/1 48/4/1 44/5/1
f 44/5/2 48/4/2 49/6/2 50/7/2
f 49/6/3 48/4/3 51/8/3 52/9/3
f 45/1/4 44/5/4 53/10/4 54/11/4
f 54/11/5 53/10/5 55/12/5 56/13/5
f 56/13/6 55/12/6 57/14/6 58/15/6
f 50/16/7 59/17/7 61/18/7 60/19/7
f 66/20/8 52/9/8 120/21/8 122/22/8
f 46/2/9 45/1/9 63/23/9 64/24/9
f 57/25/10 71/26/10 73/27/10 72/28/10
f 72/28/11 73/27/11 75/29/11 74/30/11
f 74/30/12 78/31/12 81/32/12 80/33/12
f 80/33/13 81/32/13 84/34/13 83/35/13
f 83/35/14 84/34/14 87/36/14 86/37/14
f 86/37/15 87/36/15 90/38/15 89/39/15
f 80/33/16 83/35/16 96/40/16 95/41/16
f 83/35/17 86/37/17 97/42/17 96/40/17
f 86/37/18 89/39/18 98/43/18 97/42/18
f 74/30/19 80/33/19 95/41/19 93/44/19
f 74/30/20 75/29/20 94/45/20 93/44/20
f 72/28/21 74/30/21 78/31/21 76/46/21
f 57/25/22 72/28/22 76/46/22 58/15/22
f 57/25/23 55/12/23 71/26/23
f 90/38/24 98/43/24 89/39/24
f 90/38/25 87/36/25 91/47/25
f 91/47/26 87/36/26 88/48/26 92/49/26
f 84/34/27 85/50/27 88/48/27 87/36/27
f 81/32/28 82/51/28 85/50/28 84/34/28
f 78/31/29 79/52/29 82/51/29 81/32/29
f 76/46/30 77/53/30 79/52/30 78/31/30
f 58/15/31 70/54/31 77/53/31 76/46/31
f 56/13/32 58/15/32 70/54/32 69/55/32
f 54/11/33 56/13/33 69/55/33 68/56/33
f 59/17/34 61/18/34 71/26/34 55/12/34
f 55/12/35 53/10/35 59/17/35
f 50/16/36 59/17/36 53/10/36 44/5/36
f 50/16/37 49/6/37 62/57/37 60/19/37
f 52/9/38 66/20/38 62/57/38 49/6/38
f 67/58/39 54/11/39 68/56/39
f 45/1/40 54/11/40 67/58/40 63/23/40
f 65/59/41 51/8/41 99/60/41 100/61/41
f 99/60/42 51/8/42 48/4/42 102/62/42 101/63/42
f 46/2/43 64/24/43 103/64/43 104/65/43
f 48/4/1 47/3/1 102/62/1
f 47/3/44 46/2/44 104/65/44 105/66/44
f 107/67/45 101/63/45 102/62/45 106/68/45
f 47/3/46 105/66/46 106/68/46 102/62/46
f 100/61/47 99/60/47 108/69/47 109/70/47
f 115/71/48 113/72/48 114/73/48 116/74/48
f 101/63/49 107/67/49 114/73/49 113/72/49
f 99/60/50 101/63/50 113/72/50 108/69/50
f 108/69/51 113/72/51 115/71/51 110/75/51
f 109/70/52 108/69/52 110/75/52
f 110/75/53 111/76/53 109/70/53
f 110/75/54 115/71/54 117/77/54 111/76/54
f 112/78/55 111/76/55 117/77/55 118/79/55
f 111/76/56 112/78/56 109/70/56
f 7/80/57 33/81/57 103/64/57 64/24/57
f 43/82/58 42/83/58 112/78/58 118/79/58
f 8/84/59 4/85/59 63/23/59 67/58/59
f 41/86/60 43/82/60 118/79/60 117/77/60
f 13/87/61 14/88/61 75/29/61 73/27/61
f 42/83/62 37/89/62 109/70/62 112/78/62
f 16/90/63 17/91/63 82/51/63 79/52/63
f 2/92/64 1/93/64 60/19/64 61/18/64
f 24/94/65 22/95/65 90/38/65 91/47/65
f 9/96/66 8/84/66 67/58/66 68/56/66
f 20/97/67 23/98/67 92/49/67 88/48/67
f 32/99/68 34/100/68 105/66/68 104/65/68
f 10/101/69 9/96/69 68/56/69 69/55/69
f 14/88/70 26/102/70 94/45/70 75/29/70
f 23/98/71 24/94/71 91/47/71 92/49/71
f 22/95/72 30/103/72 98/43/72 90/38/72
f 3/104/73 1/93/73 60/19/73 62/57/73
f 11/105/74 10/101/74 69/55/74 70/54/74
f 19/106/75 21/107/75 89/39/75 87/36/75
f 36/108/76 38/109/76 114/73/76 107/67/76
f 11/105/77 15/110/77 77/53/77 70/54/77
f 17/91/78 18/111/78 85/50/78 82/51/78
f 26/102/79 25/112/79 93/44/79 94/45/79
f 34/100/80 35/113/80 106/68/80 105/66/80
f 2/92/81 12/114/81 71/26/81 61/18/81
f 4/85/82 7/80/82 64/24/82 63/23/82
f 27/115/83 25/112/83 93/44/83 95/41/83
f 35/113/84 36/108/84 107/67/84 106/68/84
f 31/116/85 5/117/85 65/59/85 100/61/85
f 5/117/86 6/118/86 66/20/86 65/59/86
f 40/119/87 39/120/87 115/71/87 116/74/87
f 28/121/88 27/115/88 95/41/88 96/40/88
f 38/109/89 40/119/89 116/74/89 114/73/89
f 15/110/90 16/90/90 79/52/90 77/53/90
f 29/122/91 28/121/91 96/40/91 97/42/91
f 39/120/92 41/86/92 117/77/92 115/71/92
f 30/103/93 29/122/93 97/42/93 98/43/93
f 12/114/94 13/87/94 73/27/94 71/26/94
f 18/111/95 20/97/95 88/48/95 85/50/95
f 33/81/96 32/99/96 104/65/96 103/64/96
f 6/118/97 3/104/97 62/57/97 66/20/97
f 37/89/98 31/116/98 100/61/98 109/70/98
f 120/21/99 119/123/99 121/124/99 122/22/99
f 52/9/100 51/8/100 119/123/100 120/21/100
f 65/59/101 66/20/101 122/22/101 121/124/101
f 51/8/102 65/59/102 121/124/102 119/123/102
f 126/125/103 125/126/103 129/127/103 128/128/103 127/129/103
f 125/126/104 131/130/104 130/131/104 129/127/104
f 130/131/105 133/132/105 132/133/105 129/127/105
f 126/125/106 135/134/106 134/135/106 125/126/106
f 135/134/107 137/136/107 136/137/107 134/135/107
f 137/136/108 139/138/108 138/139/108 136/137/108
f 131/140/109 141/141/109 142/142/109 140/143/109
f 147/144/110 203/145/110 201/146/110 133/132/110
f 127/129/111 145/147/111 144/148/111 126/125/111
f 138/149/112 153/150/112 154/151/112 152/152/112
f 153/150/113 155/153/113 156/154/113 154/151/113
f 155/153/114 161/155/114 162/156/114 159/157/114
f 161/155/115 164/158/115 165/159/115 162/156/115
f 164/158/116 167/160/116 168/161/116 165/159/116
f 167/160/117 170/162/117 171/163/117 168/161/117
f 161/155/118 176/164/118 177/165/118 164/158/118
f 164/158/119 177/165/119 178/166/119 167/160/119
f 167/160/120 178/166/120 179/167/120 170/162/120
f 155/153/121 174/168/121 176/164/121 161/155/121
f 155/153/122 174/168/122 175/169/122 156/154/122
f 153/150/123 157/170/123 159/157/123 155/153/123
f 138/149/124 139/138/124 157/170/124 153/150/124
f 138/149/125 152/152/125 136/137/125
f 171/163/126 170/162/126 179/167/126
f 171/163/127 172/171/127 168/161/127
f 172/171/128 173/172/128 169/173/128 168/161/128
f 165/159/129 168/161/129 169/173/129 166/174/129
f 162/156/130 165/159/130 166/174/130 163/175/130
f 159/157/131 162/156/131 163/175/131 160/176/131
f 157/170/132 159/157/132 160/176/132 158/177/132
f 139/138/133 157/170/133 158/177/133 151/178/133
f 137/136/134 150/179/134 151/178/134 139/138/134
f 135/134/135 149/180/135 150/179/135 137/136/135
f 140/143/136 136/137/136 152/152/136 142/142/136
f 136/137/137 140/143/137 134/135/137
f 131/140/138 125/126/138 134/135/138 140/143/138
f 131/140/139 141/141/139 143/181/139 130/131/139
f 133/132/140 130/131/140 143/181/140 147/144/140
f 148/182/141 149/180/141 135/134/141
f 126/125/142 144/148/142 148/182/142 135/134/142
f 146/183/143 181/184/143 180/185/143 132/133/143
f 180/185/144 182/186/144 183/187/144 129/127/144 132/133/144
f 127/129/145 185/188/145 184/189/145 145/147/145
f 129/127/103 183/187/103 128/128/103
f 128/128/146 186/190/146 185/188/146 127/129/146
f 188/191/147 187/192/147 183/187/147 182/186/147
f 128/128/148 183/187/148 187/192/148 186/190/148
f 181/184/149 190/193/149 189/194/149 180/185/149
f 196/195/150 197/196/150 195/197/150 194/198/150
f 182/186/151 194/198/151 195/197/151 188/191/151
f 180/185/152 189/194/152 194/198/152 182/186/152
f 189/194/153 191/199/153 196/195/153 194/198/153
f 190/193/154 191/199/154 189/194/154
f 191/199/155 190/193/155 192/200/155
f 191/199/156 192/200/156 198/201/156 196/195/156
f 193/202/157 199/203/157 198/201/157 192/200/157
f 192/200/158 190/193/158 193/202/158
f 7/80/57 145/147/57 184/189/57 33/81/57
f 43/82/58 199/203/58 193/202/58 42/83/58
f 8/84/59 148/182/59 144/148/59 4/85/59
f 41/86/60 198/201/60 199/203/60 43/82/60
f 13/87/61 154/151/61 156/154/61 14/88/61
f 42/83/62 193/202/62 190/193/62 37/89/62
f 16/90/63 160/176/63 163/175/63 17/91/63
f 2/92/64 142/142/64 141/141/64 1/93/64
f 24/94/65 172/171/65 171/163/65 22/95/65
f 9/96/66 149/180/66 148/182/66 8/84/66
f 20/97/67 169/173/67 173/172/67 23/98/67
f 32/99/68 185/188/68 186/190/68 34/100/68
f 10/101/69 150/179/69 149/180/69 9/96/69
f 14/88/70 156/154/70 175/169/70 26/102/70
f 23/98/71 173/172/71 172/171/71 24/94/71
f 22/95/72 171/163/72 179/167/72 30/103/72
f 3/104/73 143/181/73 141/141/73 1/93/73
f 11/105/74 151/178/74 150/179/74 10/101/74
f 123/204/159 168/161/159 170/162/159 124/205/159
f 36/108/160 188/191/160 195/197/160 38/109/160
f 11/105/77 151/178/77 158/177/77 15/110/77
f 17/91/78 163/175/78 166/174/78 18/111/78
f 26/102/161 175/169/161 174/168/161 25/112/161
f 34/100/80 186/190/80 187/192/80 35/113/80
f 2/92/81 142/142/81 152/152/81 12/114/81
f 4/85/82 144/148/82 145/147/82 7/80/82
f 27/115/162 176/164/162 174/168/162 25/112/162
f 35/113/84 187/192/84 188/191/84 36/108/84
f 31/116/85 181/184/85 146/183/85 5/117/85
f 5/117/86 146/183/86 147/144/86 6/118/86
f 40/119/87 197/196/87 196/195/87 39/120/87
f 28/121/88 177/165/88 176/164/88 27/115/88
f 38/109/163 195/197/163 197/196/163 40/119/163
f 15/110/90 158/177/90 160/176/90 16/90/90
f 29/122/91 178/166/91 177/165/91 28/121/91
f 39/120/92 196/195/92 198/201/92 41/86/92
f 30/103/93 179/167/93 178/166/93 29/122/93
f 12/114/94 152/152/94 154/151/94 13/87/94
f 18/111/95 166/174/95 169/173/95 20/97/95
f 33/81/96 184/189/96 185/188/96 32/99/96
f 6/118/97 147/144/97 143/181/97 3/104/97
f 37/89/164 190/193/164 181/184/164 31/116/164
f 201/146/165 203/145/165 202/206/165 200/207/165
f 133/132/166 201/146/166 200/207/166 132/133/166
f 146/183/167 202/206/167 203/145/167 147/144/167
f 132/133/168 200/207/168 202/206/168 146/183/168
