# Blender v3.0.1 OBJ File: 'wheel.blend'
# www.blender.org
mtllib wheel_v3.mtl
o Plane
v 0.132230 0.644368 0.000000
v 0.231624 0.644982 0.000000
v 0.368225 0.554848 0.000000
v 0.310139 0.608791 0.000000
v 0.391387 0.411194 0.000000
v 0.393988 0.480626 0.000000
v 0.359490 0.328385 0.000000
v 0.312871 0.278086 0.000000
v 0.231289 0.244962 0.000000
v 0.163815 0.243735 0.000000
v 0.075485 0.274405 0.000000
v 0.033472 0.325400 0.000000
v 0.000000 0.489791 0.000000
v 0.000000 0.416796 0.000000
v 0.063529 0.610018 0.000000
v 0.000000 0.559106 0.000000
v 0.126921 0.584052 0.101394
v 0.132230 0.644368 0.075832
v 0.334467 0.393737 0.101394
v 0.329395 0.510876 0.101394
v 0.251150 0.584706 0.101394
v 0.231624 0.644982 0.075832
v 0.056320 0.503647 0.101394
v 0.251446 0.307447 0.101394
v 0.051745 0.393170 0.101394
v 0.143585 0.306794 0.101394
v 0.368225 0.554848 0.075832
v 0.310139 0.608791 0.075832
v 0.391387 0.411194 0.075832
v 0.393988 0.480626 0.075832
v 0.312871 0.278086 0.075832
v 0.359490 0.328385 0.075832
v 0.163815 0.243735 0.075832
v 0.231289 0.244962 0.075832
v 0.033472 0.325400 0.075832
v 0.075485 0.274405 0.075832
v 0.000000 0.489791 0.075832
v 0.000000 0.416796 0.075832
v 0.063529 0.610018 0.075832
v 0.000000 0.559106 0.075832
v 0.325753 0.397086 0.064411
v 0.320993 0.507002 0.064411
v 0.247572 0.576281 0.064411
v 0.131003 0.575667 0.064411
v 0.064755 0.500219 0.064411
v 0.247851 0.316117 0.064411
v 0.060462 0.396554 0.064411
v 0.146640 0.315503 0.064411
v 0.126921 0.584052 -0.101394
v 0.132230 0.644368 -0.075832
v 0.334467 0.393737 -0.101394
v 0.329395 0.510876 -0.101394
v 0.251150 0.584706 -0.101394
v 0.231624 0.644982 -0.075832
v 0.056320 0.503647 -0.101394
v 0.251446 0.307447 -0.101394
v 0.051745 0.393170 -0.101394
v 0.143585 0.306794 -0.101394
v 0.368225 0.554848 -0.075832
v 0.310139 0.608791 -0.075832
v 0.391387 0.411194 -0.075832
v 0.393988 0.480626 -0.075832
v 0.312871 0.278086 -0.075832
v 0.359490 0.328385 -0.075832
v 0.163815 0.243735 -0.075832
v 0.231289 0.244962 -0.075832
v 0.033472 0.325400 -0.075832
v 0.075485 0.274405 -0.075832
v 0.000000 0.489791 -0.075832
v 0.000000 0.416796 -0.075832
v 0.063529 0.610018 -0.075832
v 0.000000 0.559106 -0.075832
v 0.325753 0.397086 -0.064411
v 0.320993 0.507002 -0.064411
v 0.247572 0.576281 -0.064411
v 0.131003 0.575667 -0.064411
v 0.064755 0.500219 -0.064411
v 0.247851 0.316117 -0.064411
v 0.060462 0.396554 -0.064411
v 0.146640 0.315503 -0.064411
vt 0.000000 0.000000
vt 0.000000 0.000000
vt 0.000000 0.000000
vt 0.000000 0.000000
vt 0.000000 0.000000
vt 0.000000 0.000000
vt 0.000000 0.000000
vt 0.000000 0.000000
vt 0.000000 0.000000
vt 0.000000 0.000000
vt 0.000000 0.000000
vt 0.000000 0.000000
vt 0.000000 0.000000
vt 0.000000 0.000000
vt 0.000000 0.000000
vt 0.000000 0.000000
vt 0.000000 0.000000
vt 0.000000 0.000000
vt 0.000000 0.000000
vt 0.000000 0.000000
vt 0.000000 0.000000
vt 0.000000 0.000000
vt 0.000000 0.000000
vt 0.000000 0.000000
vt 0.000000 0.000000
vt 0.000000 0.000000
vt 0.000000 0.000000
vt 0.000000 0.000000
vt 0.000000 0.000000
vt 0.000000 0.000000
vt 0.000000 0.000000
vt 0.000000 0.000000
vt 0.000000 0.000000
vt 0.000000 0.000000
vt 0.000000 0.000000
vt 0.000000 0.000000
vt 0.000000 0.000000
vt 0.000000 0.000000
vt 0.000000 0.000000
vt 0.000000 0.000000
vt 0.000000 0.000000
vt 0.000000 0.000000
vt 0.000000 0.000000
vt 0.000000 0.000000
vt 0.000000 0.000000
vt 0.000000 0.000000
vt 0.000000 0.000000
vt 0.000000 0.000000
vt 0.000000 0.000000
vt 0.000000 0.000000
vt 0.000000 0.000000
vt 0.000000 0.000000
vt 0.000000 0.000000
vt 0.000000 0.000000
vt 0.000000 0.000000
vt 0.000000 0.000000
vt 0.000000 0.000000
vt 0.000000 0.000000
vt 0.000000 0.000000
vt 0.000000 0.000000
vt 0.000000 0.000000
vt 0.000000 0.000000
vt 0.000000 0.000000
vt 0.000000 0.000000
vt 0.000000 0.000000
vt 0.000000 0.000000
vt 0.000000 0.000000
vt 0.000000 0.000000
vt 0.000000 0.000000
vt 0.000000 0.000000
vt 0.000000 0.000000
vt 0.000000 0.000000
vt 0.000000 0.000000
vt 0.000000 0.000000
vt 0.000000 0.000000
vt 0.000000 0.000000
vt 0.000000 0.000000
vt 0.000000 0.000000
vt 0.000000 0.000000
vt 0.000000 0.000000
vn 0.0022 -0.3901 -0.9208
vn -0.2747 -0.2931 -0.9158
vn -0.7319 0.6427 -0.2265
vn -0.3883 -0.0051 -0.9215
vn -0.2692 0.2555 -0.9286
vn -0.0040 0.3771 -0.9261
vn 0.2591 0.2524 -0.9323
vn 0.4268 -0.0106 -0.9043
vn 0.2371 -0.2422 -0.9408
vn 0.1986 -0.3972 -0.8960
vn -0.2014 -0.4370 -0.8766
vn -0.4226 -0.1467 -0.8944
vn -0.4470 0.1722 -0.8778
vn -0.1704 0.4197 -0.8915
vn 0.1426 0.4108 -0.9005
vn 0.5015 0.1837 -0.8454
vn 0.4133 0.0000 -0.9106
vn -0.4186 -0.9082 0.0000
vn -0.9332 0.3594 0.0000
vn -0.9993 0.0374 0.0000
vn 0.3280 0.9447 0.0000
vn -0.0182 0.9998 0.0000
vn 0.4472 -0.8944 0.0000
vn 1.0000 0.0000 0.0000
vn -0.9447 -0.3279 0.0000
vn -0.6805 -0.7328 0.0000
vn -0.3762 0.9265 0.0000
vn 0.0062 -1.0000 0.0000
vn -0.7334 0.6798 0.0000
vn 0.9390 0.3439 0.0000
vn 0.7718 0.6359 0.0000
vn 0.6254 -0.7803 0.0000
vn 0.0000 -0.0000 -1.0000
vn -0.0051 0.9751 -0.2217
vn 0.9733 0.0421 -0.2255
vn -0.9734 0.0403 -0.2257
vn 0.7019 -0.6753 -0.2265
vn 0.6685 0.7085 -0.2261
vn 0.0059 -0.9735 -0.2288
vn -0.6679 -0.7102 -0.2224
vn 0.0022 -0.3901 0.9208
vn -0.2747 -0.2931 0.9158
vn -0.7319 0.6427 0.2265
vn -0.3883 -0.0051 0.9215
vn -0.2692 0.2555 0.9286
vn -0.0040 0.3771 0.9261
vn 0.2591 0.2524 0.9323
vn 0.4268 -0.0106 0.9043
vn 0.2371 -0.2422 0.9408
vn 0.1986 -0.3972 0.8960
vn -0.2014 -0.4370 0.8766
vn -0.4226 -0.1467 0.8944
vn -0.4470 0.1722 0.8778
vn -0.1704 0.4197 0.8915
vn 0.1426 0.4108 0.9005
vn 0.5015 0.1837 0.8454
vn 0.4133 0.0000 0.9106
vn 0.0000 -0.0000 1.0000
vn -0.0051 0.9751 0.2216
vn 0.9733 0.0421 0.2255
vn -0.9734 0.0403 0.2257
vn 0.7019 -0.6753 0.2265
vn 0.6685 0.7085 0.2261
vn 0.0059 -0.9735 0.2288
vn -0.6679 -0.7102 0.2224
usemtl Material.001
s off
f 21/1/1 17/2/1 18/3/1 22/4/1
f 20/5/2 21/1/2 28/6/2 27/7/2
f 23/8/3 17/2/3 44/9/3 45/10/3
f 19/11/4 20/5/4 30/12/4 29/13/4
f 24/14/5 19/11/5 32/15/5 31/16/5
f 26/17/6 24/14/6 34/18/6 33/19/6
f 25/20/7 26/17/7 36/21/7 35/22/7
f 23/8/8 25/20/8 38/23/8 37/24/8
f 17/2/9 23/8/9 40/25/9 39/26/9
f 17/2/10 39/26/10 18/3/10
f 21/1/11 22/4/11 28/6/11
f 20/5/12 27/7/12 30/12/12
f 19/11/13 29/13/13 32/15/13
f 24/14/14 31/16/14 34/18/14
f 26/17/15 33/19/15 36/21/15
f 25/20/16 35/22/16 38/23/16
f 23/8/17 37/24/17 40/25/17
f 2/27/18 4/28/18 28/6/18 22/4/18
f 5/29/19 7/30/19 32/15/19 29/13/19
f 6/31/20 5/29/20 29/13/20 30/12/20
f 10/32/21 11/33/21 36/21/21 33/19/21
f 9/34/22 10/32/22 33/19/22 34/18/22
f 15/35/23 1/36/23 18/3/23 39/26/23
f 14/37/24 13/38/24 37/24/24 38/23/24
f 13/38/24 16/39/24 40/25/24 37/24/24
f 3/40/25 6/31/25 30/12/25 27/7/25
f 4/28/26 3/40/26 27/7/26 28/6/26
f 8/41/27 9/34/27 34/18/27 31/16/27
f 1/36/28 2/27/28 22/4/28 18/3/28
f 7/30/29 8/41/29 31/16/29 32/15/29
f 12/42/30 14/37/30 38/23/30 35/22/30
f 11/33/31 12/42/31 35/22/31 36/21/31
f 16/39/32 15/35/32 39/26/32 40/25/32
f 41/43/33 46/44/33 48/45/33 47/46/33 45/10/33 44/9/33 43/47/33 42/48/33
f 17/2/34 21/1/34 43/47/34 44/9/34
f 20/5/35 19/11/35 41/43/35 42/48/35
f 25/20/36 23/8/36 45/10/36 47/46/36
f 19/11/37 24/14/37 46/44/37 41/43/37
f 21/1/38 20/5/38 42/48/38 43/47/38
f 24/14/39 26/17/39 48/45/39 46/44/39
f 26/17/40 25/20/40 47/46/40 48/45/40
f 53/49/41 54/50/41 50/51/41 49/52/41
f 52/53/42 59/54/42 60/55/42 53/49/42
f 55/56/43 77/57/43 76/58/43 49/52/43
f 51/59/44 61/60/44 62/61/44 52/53/44
f 56/62/45 63/63/45 64/64/45 51/59/45
f 58/65/46 65/66/46 66/67/46 56/62/46
f 57/68/47 67/69/47 68/70/47 58/65/47
f 55/56/48 69/71/48 70/72/48 57/68/48
f 49/52/49 71/73/49 72/74/49 55/56/49
f 49/52/50 50/51/50 71/73/50
f 53/49/51 60/55/51 54/50/51
f 52/53/52 62/61/52 59/54/52
f 51/59/53 64/64/53 61/60/53
f 56/62/54 66/67/54 63/63/54
f 58/65/55 68/70/55 65/66/55
f 57/68/56 70/72/56 67/69/56
f 55/56/57 72/74/57 69/71/57
f 2/27/18 54/50/18 60/55/18 4/28/18
f 5/29/19 61/60/19 64/64/19 7/30/19
f 6/31/20 62/61/20 61/60/20 5/29/20
f 10/32/21 65/66/21 68/70/21 11/33/21
f 9/34/22 66/67/22 65/66/22 10/32/22
f 15/35/23 71/73/23 50/51/23 1/36/23
f 14/37/24 70/72/24 69/71/24 13/38/24
f 13/38/24 69/71/24 72/74/24 16/39/24
f 3/40/25 59/54/25 62/61/25 6/31/25
f 4/28/26 60/55/26 59/54/26 3/40/26
f 8/41/27 63/63/27 66/67/27 9/34/27
f 1/36/28 50/51/28 54/50/28 2/27/28
f 7/30/29 64/64/29 63/63/29 8/41/29
f 12/42/30 67/69/30 70/72/30 14/37/30
f 11/33/31 68/70/31 67/69/31 12/42/31
f 16/39/32 72/74/32 71/73/32 15/35/32
f 73/75/58 74/76/58 75/77/58 76/58/58 77/57/58 79/78/58 80/79/58 78/80/58
f 49/52/59 76/58/59 75/77/59 53/49/59
f 52/53/60 74/76/60 73/75/60 51/59/60
f 57/68/61 79/78/61 77/57/61 55/56/61
f 51/59/62 73/75/62 78/80/62 56/62/62
f 53/49/63 75/77/63 74/76/63 52/53/63
f 56/62/64 78/80/64 80/79/64 58/65/64
f 58/65/65 80/79/65 79/78/65 57/68/65
