# Blender v3.0.1 OBJ File: 'wheel.blend'
# www.blender.org
mtllib wheel_v2.mtl
o Plane
v 0.132230 0.644368 0.000000
v 0.231624 0.644982 0.000000
v 0.368225 0.554848 0.000000
v 0.310139 0.608791 0.000000
v 0.391387 0.411194 0.000000
v 0.393988 0.480626 0.000000
v 0.359490 0.328385 0.000000
v 0.312871 0.278086 0.000000
v 0.231289 0.244962 0.000000
v 0.163815 0.243735 0.000000
v 0.075485 0.274405 0.000000
v 0.033472 0.325400 0.000000
v -0.007626 0.489791 0.000000
v -0.010693 0.416796 0.000000
v 0.063529 0.610018 0.000000
v 0.021817 0.559106 0.000000
v 0.126921 0.584052 0.101394
v 0.132230 0.644368 0.075832
v 0.334467 0.393737 0.101394
v 0.329395 0.510876 0.101394
v 0.251150 0.584706 0.101394
v 0.231624 0.644982 0.075832
v 0.056320 0.503647 0.101394
v 0.251446 0.307447 0.101394
v 0.051745 0.393170 0.101394
v 0.143585 0.306794 0.101394
v 0.368225 0.554848 0.075832
v 0.310139 0.608791 0.075832
v 0.391387 0.411194 0.075832
v 0.393988 0.480626 0.075832
v 0.312871 0.278086 0.075832
v 0.359490 0.328385 0.075832
v 0.163815 0.243735 0.075832
v 0.231289 0.244962 0.075832
v 0.033472 0.325400 0.075832
v 0.075485 0.274405 0.075832
v -0.007626 0.489791 0.075832
v -0.010693 0.416796 0.075832
v 0.063529 0.610018 0.075832
v 0.021817 0.559106 0.075832
v 0.325753 0.397086 0.064411
v 0.320993 0.507002 0.064411
v 0.247572 0.576281 0.064411
v 0.131003 0.575667 0.064411
v 0.064755 0.500219 0.064411
v 0.247851 0.316117 0.064411
v 0.060462 0.396554 0.064411
v 0.146640 0.315503 0.064411
v 0.126921 0.584052 -0.101394
v 0.132230 0.644368 -0.075832
v 0.334467 0.393737 -0.101394
v 0.329395 0.510876 -0.101394
v 0.251150 0.584706 -0.101394
v 0.231624 0.644982 -0.075832
v 0.056320 0.503647 -0.101394
v 0.251446 0.307447 -0.101394
v 0.051745 0.393170 -0.101394
v 0.143585 0.306794 -0.101394
v 0.368225 0.554848 -0.075832
v 0.310139 0.608791 -0.075832
v 0.391387 0.411194 -0.075832
v 0.393988 0.480626 -0.075832
v 0.312871 0.278086 -0.075832
v 0.359490 0.328385 -0.075832
v 0.163815 0.243735 -0.075832
v 0.231289 0.244962 -0.075832
v 0.033472 0.325400 -0.075832
v 0.075485 0.274405 -0.075832
v -0.007626 0.489791 -0.075832
v -0.010693 0.416796 -0.075832
v 0.063529 0.610018 -0.075832
v 0.021817 0.559106 -0.075832
v 0.325753 0.397086 -0.064411
v 0.320993 0.507002 -0.064411
v 0.247572 0.576281 -0.064411
v 0.131003 0.575667 -0.064411
v 0.064755 0.500219 -0.064411
v 0.247851 0.316117 -0.064411
v 0.060462 0.396554 -0.064411
v 0.146640 0.315503 -0.064411
vt 0.000000 0.000000
vt 0.000000 0.000000
vt 0.000000 0.000000
vt 0.000000 0.000000
vt 0.000000 0.000000
vt 0.000000 0.000000
vt 0.000000 0.000000
vt 0.000000 0.000000
vt 0.000000 0.000000
vt 0.000000 0.000000
vt 0.000000 0.000000
vt 0.000000 0.000000
vt 0.000000 0.000000
vt 0.000000 0.000000
vt 0.000000 0.000000
vt 0.000000 0.000000
vt 0.000000 0.000000
vt 0.000000 0.000000
vt 0.000000 0.000000
vt 0.000000 0.000000
vt 0.000000 0.000000
vt 0.000000 0.000000
vt 0.000000 0.000000
vt 0.000000 0.000000
vt 0.000000 0.000000
vt 0.000000 0.000000
vt 0.000000 0.000000
vt 0.000000 0.000000
vt 0.000000 0.000000
vt 0.000000 0.000000
vt 0.000000 0.000000
vt 0.000000 0.000000
vt 0.000000 0.000000
vt 0.000000 0.000000
vt 0.000000 0.000000
vt 0.000000 0.000000
vt 0.000000 0.000000
vt 0.000000 0.000000
vt 0.000000 0.000000
vt 0.000000 0.000000
vt 0.000000 0.000000
vt 0.000000 0.000000
vt 0.000000 0.000000
vt 0.000000 0.000000
vt 0.000000 0.000000
vt 0.000000 0.000000
vt 0.000000 0.000000
vt 0.000000 0.000000
vt 0.000000 0.000000
vt 0.000000 0.000000
vt 0.000000 0.000000
vt 0.000000 0.000000
vt 0.000000 0.000000
vt 0.000000 0.000000
vt 0.000000 0.000000
vt 0.000000 0.000000
vt 0.000000 0.000000
vt 0.000000 0.000000
vt 0.000000 0.000000
vt 0.000000 0.000000
vt 0.000000 0.000000
vt 0.000000 0.000000
vt 0.000000 0.000000
vt 0.000000 0.000000
vt 0.000000 0.000000
vt 0.000000 0.000000
vt 0.000000 0.000000
vt 0.000000 0.000000
vt 0.000000 0.000000
vt 0.000000 0.000000
vt 0.000000 0.000000
vt 0.000000 0.000000
vt 0.000000 0.000000
vt 0.000000 0.000000
vt 0.000000 0.000000
vt 0.000000 0.000000
vt 0.000000 0.000000
vt 0.000000 0.000000
vt 0.000000 0.000000
vt 0.000000 0.000000
vn 0.0022 -0.3901 -0.9208
vn -0.2747 -0.2931 -0.9158
vn -0.7319 0.6427 -0.2265
vn -0.3883 -0.0051 -0.9215
vn -0.2692 0.2555 -0.9286
vn -0.0040 0.3771 -0.9261
vn 0.2591 0.2524 -0.9323
vn 0.3739 -0.0156 -0.9273
vn 0.2832 -0.2422 -0.9280
vn 0.1986 -0.3972 -0.8960
vn -0.2014 -0.4370 -0.8766
vn -0.4226 -0.1467 -0.8944
vn -0.4470 0.1722 -0.8778
vn -0.1704 0.4197 -0.8915
vn 0.1426 0.4108 -0.9005
vn 0.4378 0.2116 -0.8738
vn 0.3972 -0.1687 -0.9021
vn -0.4186 -0.9082 0.0000
vn -0.9332 0.3594 0.0000
vn -0.9993 0.0374 0.0000
vn 0.3280 0.9447 0.0000
vn -0.0182 0.9998 0.0000
vn 0.4472 -0.8944 0.0000
vn 0.9991 -0.0420 0.0000
vn 0.9204 -0.3910 0.0000
vn -0.9447 -0.3279 0.0000
vn -0.6805 -0.7328 0.0000
vn -0.3762 0.9265 0.0000
vn 0.0062 -1.0000 0.0000
vn -0.7334 0.6798 0.0000
vn 0.9004 0.4351 0.0000
vn 0.7718 0.6359 0.0000
vn 0.7735 -0.6337 0.0000
vn 0.0000 -0.0000 -1.0000
vn -0.0051 0.9751 -0.2217
vn 0.9733 0.0421 -0.2255
vn -0.9734 0.0403 -0.2257
vn 0.7019 -0.6753 -0.2265
vn 0.6685 0.7085 -0.2261
vn 0.0059 -0.9735 -0.2288
vn -0.6679 -0.7102 -0.2224
vn 0.0022 -0.3901 0.9208
vn -0.2747 -0.2931 0.9158
vn -0.7319 0.6427 0.2265
vn -0.3883 -0.0051 0.9215
vn -0.2692 0.2555 0.9286
vn -0.0040 0.3771 0.9261
vn 0.2591 0.2524 0.9323
vn 0.3739 -0.0156 0.9273
vn 0.2832 -0.2422 0.9280
vn 0.1986 -0.3972 0.8960
vn -0.2014 -0.4370 0.8766
vn -0.4226 -0.1467 0.8944
vn -0.4470 0.1722 0.8778
vn -0.1704 0.4197 0.8915
vn 0.1426 0.4108 0.9005
vn 0.4378 0.2116 0.8738
vn 0.3972 -0.1687 0.9021
vn 0.0000 -0.0000 1.0000
vn -0.0051 0.9751 0.2216
vn 0.9733 0.0421 0.2255
vn -0.9734 0.0403 0.2257
vn 0.7019 -0.6753 0.2265
vn 0.6685 0.7085 0.2261
vn 0.0059 -0.9735 0.2288
vn -0.6679 -0.7102 0.2224
usemtl Material.001
s off
f 21/1/1 17/2/1 18/3/1 22/4/1
f 20/5/2 21/1/2 28/6/2 27/7/2
f 23/8/3 17/2/3 44/9/3 45/10/3
f 19/11/4 20/5/4 30/12/4 29/13/4
f 24/14/5 19/11/5 32/15/5 31/16/5
f 26/17/6 24/14/6 34/18/6 33/19/6
f 25/20/7 26/17/7 36/21/7 35/22/7
f 23/8/8 25/20/8 38/23/8 37/24/8
f 17/2/9 23/8/9 40/25/9 39/26/9
f 17/2/10 39/26/10 18/3/10
f 21/1/11 22/4/11 28/6/11
f 20/5/12 27/7/12 30/12/12
f 19/11/13 29/13/13 32/15/13
f 24/14/14 31/16/14 34/18/14
f 26/17/15 33/19/15 36/21/15
f 25/20/16 35/22/16 38/23/16
f 23/8/17 37/24/17 40/25/17
f 2/27/18 4/28/18 28/6/18 22/4/18
f 5/29/19 7/30/19 32/15/19 29/13/19
f 6/31/20 5/29/20 29/13/20 30/12/20
f 10/32/21 11/33/21 36/21/21 33/19/21
f 9/34/22 10/32/22 33/19/22 34/18/22
f 15/35/23 1/36/23 18/3/23 39/26/23
f 14/37/24 13/38/24 37/24/24 38/23/24
f 13/38/25 16/39/25 40/25/25 37/24/25
f 3/40/26 6/31/26 30/12/26 27/7/26
f 4/28/27 3/40/27 27/7/27 28/6/27
f 8/41/28 9/34/28 34/18/28 31/16/28
f 1/36/29 2/27/29 22/4/29 18/3/29
f 7/30/30 8/41/30 31/16/30 32/15/30
f 12/42/31 14/37/31 38/23/31 35/22/31
f 11/33/32 12/42/32 35/22/32 36/21/32
f 16/39/33 15/35/33 39/26/33 40/25/33
f 41/43/34 46/44/34 48/45/34 47/46/34 45/10/34 44/9/34 43/47/34 42/48/34
f 17/2/35 21/1/35 43/47/35 44/9/35
f 20/5/36 19/11/36 41/43/36 42/48/36
f 25/20/37 23/8/37 45/10/37 47/46/37
f 19/11/38 24/14/38 46/44/38 41/43/38
f 21/1/39 20/5/39 42/48/39 43/47/39
f 24/14/40 26/17/40 48/45/40 46/44/40
f 26/17/41 25/20/41 47/46/41 48/45/41
f 53/49/42 54/50/42 50/51/42 49/52/42
f 52/53/43 59/54/43 60/55/43 53/49/43
f 55/56/44 77/57/44 76/58/44 49/52/44
f 51/59/45 61/60/45 62/61/45 52/53/45
f 56/62/46 63/63/46 64/64/46 51/59/46
f 58/65/47 65/66/47 66/67/47 56/62/47
f 57/68/48 67/69/48 68/70/48 58/65/48
f 55/56/49 69/71/49 70/72/49 57/68/49
f 49/52/50 71/73/50 72/74/50 55/56/50
f 49/52/51 50/51/51 71/73/51
f 53/49/52 60/55/52 54/50/52
f 52/53/53 62/61/53 59/54/53
f 51/59/54 64/64/54 61/60/54
f 56/62/55 66/67/55 63/63/55
f 58/65/56 68/70/56 65/66/56
f 57/68/57 70/72/57 67/69/57
f 55/56/58 72/74/58 69/71/58
f 2/27/18 54/50/18 60/55/18 4/28/18
f 5/29/19 61/60/19 64/64/19 7/30/19
f 6/31/20 62/61/20 61/60/20 5/29/20
f 10/32/21 65/66/21 68/70/21 11/33/21
f 9/34/22 66/67/22 65/66/22 10/32/22
f 15/35/23 71/73/23 50/51/23 1/36/23
f 14/37/24 70/72/24 69/71/24 13/38/24
f 13/38/25 69/71/25 72/74/25 16/39/25
f 3/40/26 59/54/26 62/61/26 6/31/26
f 4/28/27 60/55/27 59/54/27 3/40/27
f 8/41/28 63/63/28 66/67/28 9/34/28
f 1/36/29 50/51/29 54/50/29 2/27/29
f 7/30/30 64/64/30 63/63/30 8/41/30
f 12/42/31 67/69/31 70/72/31 14/37/31
f 11/33/32 68/70/32 67/69/32 12/42/32
f 16/39/33 72/74/33 71/73/33 15/35/33
f 73/75/59 74/76/59 75/77/59 76/58/59 77/57/59 79/78/59 80/79/59 78/80/59
f 49/52/60 76/58/60 75/77/60 53/49/60
f 52/53/61 74/76/61 73/75/61 51/59/61
f 57/68/62 79/78/62 77/57/62 55/56/62
f 51/59/63 73/75/63 78/80/63 56/62/63
f 53/49/64 75/77/64 74/76/64 52/53/64
f 56/62/65 78/80/65 80/79/65 58/65/65
f 58/65/66 80/79/66 79/78/66 57/68/66
